<svg width="776" height="776" viewBox="0 0 776 776" fill="none" xmlns="http://www.w3.org/2000/svg">
<path fill-rule="evenodd" clip-rule="evenodd" d="M776 388C776 602.286 602.286 776 388 776C173.714 776 0 602.286 0 388C0 173.714 173.714 0 388 0C602.286 0 776 173.714 776 388ZM426.6 225.4L557.8 542.6C559 545.4 559.5 548.5 559.4 551.5C559.4 558.9 557.2 564.7 553 569.2C548.8 573.7 543 575.9 535.6 575.9C530.8 575.8 526 574.3 522.1 571.4C517.9 568.5 515 564.3 512.7 559.5L387.9 249.1L342.1 363.2H364.3C377.2 363.3 387.7 373.8 387.8 386.7V387.3C387.7 400.3 377.2 410.7 364.3 410.8H322.7L262.7 559.6C260.4 564.4 257.5 568.6 253.3 571.5C249.4 574.4 244.7 575.9 239.8 576C232.4 576 226.5 573.8 222.4 569.3C218.3 564.8 216 559 216 551.6C216 548.5 216.6 545.5 217.6 542.6L272.1 410.9H248.9C236 410.8 225.5 400.3 225.4 387.4V387.1C225.5 374.1 236 363.7 248.9 363.6H292.1L349.2 225.4C356.6 209 367.6 201 382.1 201H393.7C408.2 201 419.2 209 426.6 225.4Z" fill="url(#paint0_linear_511_10227)"/>
<defs>
<linearGradient id="paint0_linear_511_10227" x1="677.287" y1="144.586" x2="99.9432" y2="630.362" gradientUnits="userSpaceOnUse">
<stop stop-color="#070A0E"/>
</linearGradient>
</defs>
</svg>
