<svg version="1.0" xmlns="http://www.w3.org/2000/svg"
     width="173.000000pt" height="173.000000pt" viewBox="0 0 173.000000 173.000000"
     preserveAspectRatio="xMidYMid meet">
  <g transform="translate(0.000000,173.000000) scale(0.100000,-0.100000)"
     fill="#000000" stroke="none">
    <path d="M775 1723 c-73 -9 -181 -37 -244 -62 -243 -101 -432 -320 -502 -586
-30 -114 -30 -308 0 -420 45 -167 124 -298 253 -420 294 -278 736 -308 1078
-75 160 109 274 271 336 476 23 77 27 108 28 224 0 159 -21 254 -85 385 -156
320 -520 521 -864 478z m-192 -530 l-48 -47 40 -8 c79 -16 397 -21 505 -8 58
6 107 14 110 17 3 2 -17 25 -43 50 l-48 45 57 -7 c135 -17 231 -65 208 -103
-27 -44 -144 -75 -357 -94 -267 -23 -615 30 -641 97 -3 9 -3 21 0 26 17 28
160 75 237 78 29 1 28 1 -20 -46z m-125 -224 c-6 -22 -16 -42 -22 -44 -6 -2
-33 -9 -59 -15 -26 -7 -46 -14 -45 -16 13 -13 233 -45 365 -54 228 -15 580 10
685 49 26 9 27 8 -58 30 -37 10 -42 15 -47 48 -4 20 -5 39 -2 41 9 9 155 -30
203 -54 94 -47 73 -97 -58 -139 -327 -103 -1068 -76 -1203 44 -28 25 -30 31
-20 53 6 14 28 33 50 43 44 22 156 53 194 54 26 1 27 0 17 -40z m56 -334 c11
-20 29 -38 40 -40 109 -25 400 -31 551 -12 86 12 90 13 113 47 13 19 27 36 32
38 6 2 35 -8 66 -22 45 -21 55 -29 52 -47 -10 -70 -193 -109 -513 -109 -230 0
-387 24 -462 70 -38 23 -41 40 -14 64 18 17 84 45 106 46 6 0 19 -16 29 -35z"/>
  </g>
</svg>
