<svg version="1.0" xmlns="http://www.w3.org/2000/svg"
     width="174.000000pt" height="174.000000pt" viewBox="0 0 174.000000 174.000000"
     preserveAspectRatio="xMidYMid meet">

  <g transform="translate(0.000000,174.000000) scale(0.100000,-0.100000)"
     fill="#000000" stroke="none">
    <path d="M528 1235 c-37 -8 -87 -23 -112 -34 -37 -16 -46 -25 -46 -45 0 -32
54 -58 170 -83 123 -26 537 -26 659 0 93 20 159 49 168 74 14 37 -72 75 -217
98 l-45 7 49 -48 49 -49 -34 -8 c-61 -15 -438 -20 -534 -8 -50 7 -92 15 -95
18 -3 3 17 25 43 49 54 49 52 50 -55 29z"/>
    <path d="M365 1001 c-230 -58 -227 -136 7 -191 137 -31 272 -43 493 -43 358 0
626 50 665 124 13 24 -6 51 -52 75 -31 16 -198 58 -204 51 -3 -2 1 -21 8 -43
11 -33 18 -39 53 -46 22 -5 47 -11 55 -14 24 -9 -5 -20 -95 -37 -260 -49 -668
-45 -909 10 -74 16 -74 27 0 39 55 8 61 13 69 57 8 43 10 43 -90 18z"/>
    <path d="M430 657 c-45 -18 -55 -26 -55 -46 0 -37 41 -60 150 -84 88 -19 129
-21 345 -21 260 0 351 11 445 53 53 23 64 44 40 71 -14 16 -105 55 -110 47 -1
-1 -11 -18 -23 -38 -22 -36 -24 -37 -110 -48 -110 -14 -370 -14 -482 -1 -86
11 -93 14 -130 68 l-15 21 -55 -22z"/>
  </g>
</svg>
