<svg width="812" height="800" viewBox="0 0 812 800" fill="none" xmlns="http://www.w3.org/2000/svg">
<path d="M145.747 424.557L142.114 422.222L138.054 423.697C99.607 437.665 67.7677 454.765 45.3787 474.342C23.0044 493.907 9.27767 516.7 9.27767 541.797C9.27767 565.877 21.918 587.512 42.6854 606.017C63.4255 624.497 92.9326 640.505 128.617 653.659C200.048 679.991 298.125 695.578 405.994 695.578C513.943 695.578 612.06 678.627 683.509 650.906C719.206 637.057 748.69 620.348 769.398 601.346C790.113 582.337 802.711 560.365 802.711 536.295C802.711 512.044 789.832 489.912 768.734 470.803C747.634 451.693 717.61 434.908 681.301 421.062L677.305 419.538L673.652 421.764C615.824 457.025 520.534 480.606 411.757 480.606C299.874 480.606 202.736 461.174 145.747 424.557Z" fill="#232323" stroke="#EEEDED" stroke-width="17.4447"/>
<path d="M222.404 268.774L219.147 267.071L215.654 268.213C183.234 278.805 156.075 292.244 136.841 307.939C117.666 323.586 105.371 342.361 105.371 363.458C105.371 382.472 115.356 399.622 131.327 414.244C147.292 428.86 169.91 441.621 197.121 452.157C251.597 473.25 326.258 486.108 408.272 486.108C490.352 486.108 565.047 473.251 619.525 452.157C646.735 441.621 669.347 428.859 685.297 414.24C701.254 399.616 711.214 382.459 711.173 363.44C711.166 342.355 698.912 323.619 679.753 307.989C660.536 292.311 633.379 278.873 600.901 268.216L597.403 267.068L594.141 268.774C550.293 291.697 483.696 306.696 408.272 306.696C332.849 306.696 266.252 291.697 222.404 268.774Z" fill="#232323" stroke="#EEEDED" stroke-width="17.4447"/>
<path d="M171.041 207.933C171.041 223.953 178.953 238.412 191.549 250.704C204.118 262.97 221.852 273.622 243.058 282.384C285.511 299.927 343.552 310.588 407.199 310.588C470.846 310.588 528.887 299.927 571.34 282.384C592.546 273.622 610.281 262.97 622.85 250.704C635.445 238.412 643.357 223.953 643.357 207.933C643.357 191.912 635.445 177.454 622.85 165.162C610.281 152.895 592.546 142.244 571.34 133.481C528.887 115.939 470.846 105.278 407.199 105.278C343.552 105.278 285.511 115.939 243.058 133.481C221.852 142.244 204.118 152.895 191.549 165.162C178.953 177.454 171.041 191.912 171.041 207.933Z" fill="#232323" stroke="#EEEDED" stroke-width="17.4447"/>
</svg>
