<svg width="762" height="710" viewBox="0 0 762 710" fill="none" xmlns="http://www.w3.org/2000/svg">
<path fill-rule="evenodd" clip-rule="evenodd" d="M554.988 53.3595C597.053 45.638 754.401 16.7743 761.421 65.9661C768.598 116.34 703.753 185.807 635.91 217.035C632.335 218.676 629.167 220.935 625.986 223.207C623.343 225.098 620.701 226.989 617.809 228.525C607.135 234.237 600.773 248.485 602.337 261.341V441.326C548.836 404.347 470.202 381.34 381.077 381.34C291.953 381.34 213.318 404.347 159.818 441.326V261.341C161.382 248.485 155.006 234.237 144.332 228.525C141.504 226.934 138.782 225.162 136.182 223.22C133.001 220.948 129.82 218.676 126.232 217.035C58.3892 185.807 -6.44292 116.34 0.721211 65.9661C7.74075 16.7743 165.128 45.638 207.167 53.3595C210.505 53.9636 213.121 54.4495 214.883 54.7384C216.092 54.9485 217.236 53.9242 216.986 52.7292C214.567 40.8318 212.819 8.6588 236.02 1.69893C250.848 -2.76589 260.628 5.45463 266.425 13.7539C269.028 17.4834 276.81 33.5699 281.634 44.7451C284.237 50.7726 290.31 59.584 296.961 59.4264C324.203 50.9862 352.555 46.6618 381.077 46.5967C409.156 46.5967 437.234 50.8776 465.18 59.4264C471.845 59.584 477.905 50.7594 480.521 44.7319C485.345 33.5699 493.127 17.4834 495.717 13.7539C501.527 5.45463 511.307 -2.76589 526.135 1.69893C549.323 8.6588 547.575 40.8318 545.156 52.7292C544.919 53.9111 546.05 54.9485 547.259 54.7384C549.021 54.4495 551.65 53.9636 554.988 53.3464V53.3595ZM347.662 252.596C348.451 248.052 340.985 236.496 317.718 220.817C301.289 209.912 283.293 201.574 264.348 196.089C259.916 194.711 255.292 194.046 250.651 194.12C242.198 194.435 234.088 197.271 226.989 202.288C217.512 208.748 210.952 217.389 208.967 228.551C206.93 239.713 210.098 250.048 216.763 259.319C221.679 266.41 228.304 271.808 236.139 274.946C240.437 276.653 245.077 277.415 249.704 277.704C269.409 278.899 289.311 277.139 308.463 272.412C335.779 265.491 346.808 257.139 347.662 252.596ZM526.003 274.946C533.87 271.765 540.617 266.328 545.392 259.319C552.044 250.048 555.212 239.726 553.188 228.564C551.216 217.402 544.643 208.748 535.152 202.288C528.236 197.31 520.008 194.469 511.491 194.12C506.85 194.046 502.226 194.711 497.794 196.089C478.85 201.569 460.853 209.903 444.424 220.804C421.157 236.496 413.717 248.039 414.479 252.596C415.347 257.139 426.363 265.491 453.692 272.412C472.831 277.139 492.733 278.899 512.451 277.704C517.065 277.415 521.718 276.653 526.003 274.946Z" fill="#232323"/>
<path fill-rule="evenodd" clip-rule="evenodd" d="M117.488 560.419C117.488 478.056 235.493 411.281 381.076 411.281C526.646 411.281 644.663 478.056 644.663 560.419C644.663 642.782 526.659 709.557 381.076 709.557C235.493 709.557 117.488 642.795 117.488 560.419ZM208.716 551.135C212.752 575.665 233.758 586.473 256.302 575.665C267.039 570.76 276.23 563.017 282.884 553.274C289.537 543.531 293.4 532.157 294.055 520.38C293.949 507.734 287.14 512.593 278.727 518.581C267.488 526.591 253.383 536.65 248.625 509.638C240.343 462.416 204.299 524.871 208.716 551.135ZM505.824 575.665C528.381 586.473 549.387 575.665 553.409 551.135C557.826 524.871 521.795 462.416 513.5 509.638C508.768 536.65 494.65 526.591 483.398 518.568C474.998 512.58 468.189 507.734 468.097 520.38C468.745 532.155 472.602 543.529 479.251 553.273C485.9 563.016 495.089 570.76 505.824 575.665Z" fill="#232323"/>
</svg>
