<svg width="723" height="800" viewBox="0 0 723 800" fill="none" xmlns="http://www.w3.org/2000/svg">
<g clip-path="url(#clip0_290_2659)">
<path fill-rule="evenodd" clip-rule="evenodd" d="M84.9786 212.88C87.4128 204.699 90.5358 196.671 94.3598 188.875C94.5584 188.529 94.7589 188.184 94.9612 187.841C102.802 174.448 112.576 162.956 126.122 154.281C126.13 154.275 126.137 154.27 126.145 154.265L347.65 0L347.648 0.00217206L347.651 0L346.969 1.12134L120.185 374.784C120.185 374.784 100.32 341.162 92.3733 324.351C82.8329 302.356 78.1153 278.844 78.4772 255.477C78.6898 241.132 80.8368 226.793 84.9786 212.88ZM81.703 612.521C36.0057 569.515 7.32437 510.136 2.97872 446.972C1.71491 437.221 0.853104 427.37 0.361326 417.45C0.024397 410.655 -0.138842 403.827 -0.138672 396.977C-0.138407 386.322 0.257245 375.615 1.00959 364.893C1.28702 360.939 1.61294 356.984 1.98542 353.028C2.29583 351.174 2.62175 349.324 2.9632 347.478C8.08486 319.785 16.6986 293.016 28.8043 267.985C28.8043 267.985 29.2389 267.182 29.9373 265.884C32.0325 261.99 36.5023 253.646 38.7373 249.197C36.7507 261.063 36.7507 272.93 38.7373 284.796C42.7104 311.496 51.6501 337.206 64.5629 359.951C161.409 524.598 272.223 689.802 321.577 762.114C338.029 786.218 347.651 800 347.651 800L102.308 629.913C95.1066 624.475 88.2312 618.665 81.703 612.521ZM600.942 426.207C600.941 426.206 600.941 426.205 600.941 426.205L373.477 800L373.48 799.998L373.478 800L595.976 646.725C608.889 637.825 619.815 625.958 627.761 612.114C647.627 569.593 648.62 520.149 628.755 476.638C620.808 459.827 600.942 426.206 600.942 426.206L600.942 426.207ZM374.479 0.00597601L374.47 0C374.47 0 528.431 220.519 657.559 440.049C670.472 462.794 679.411 488.504 683.384 515.204C685.371 527.07 685.371 538.937 683.384 550.803C683.387 550.799 683.389 550.795 683.391 550.791C683.39 550.795 683.389 550.799 683.389 550.803C686.369 544.87 693.322 532.015 693.322 532.015C706.234 505.315 715.174 476.638 720.141 447.96C722.127 415.328 722.127 384.672 719.147 353.028C714.181 280.841 677.429 213.597 619.818 170.087L374.475 0C374.475 0 374.476 0.00199401 374.479 0.00597601Z" fill="#232323"/>
</g>
<defs>
<clipPath id="clip0_290_2659">
<rect width="722.124" height="800" fill="white"/>
</clipPath>
</defs>
</svg>
