<svg width="778" height="778" viewBox="0 0 778 778" fill="none" xmlns="http://www.w3.org/2000/svg">
<path fill-rule="evenodd" clip-rule="evenodd" d="M778 389C778 603.839 603.839 778 389 778C174.161 778 0 603.839 0 389C0 174.161 174.161 0 389 0C603.839 0 778 174.161 778 389ZM494.108 341.211L389.106 176.818L284.104 341.21L389.099 402.419L494.108 341.211ZM389.106 219.368L316.248 333.435L389.101 375.907L461.964 333.435L389.106 219.368ZM267.144 367.543L388.951 438.552L510.785 367.541L514.113 372.75C551.629 431.486 543.249 508.407 493.968 557.688C435.977 615.679 341.954 615.679 283.963 557.688C234.682 508.407 226.303 431.486 263.818 372.75L267.144 367.543Z" fill="#232323"/>
</svg>
