<svg width="680" height="680" viewBox="0 0 680 680" fill="none" xmlns="http://www.w3.org/2000/svg">
<path fill-rule="evenodd" clip-rule="evenodd" d="M340 680C527.777 680 680 527.777 680 340C680 152.223 527.777 0 340 0C152.223 0 0 152.223 0 340C0 527.777 152.223 680 340 680ZM240.856 430.304C220.592 430.304 204 425.544 191.08 416.024C178.296 406.368 171.904 392.496 171.904 374.68C171.904 370.872 172.312 366.384 173.128 360.944C175.304 348.704 178.432 334.016 182.512 316.744C194.072 269.96 223.992 246.568 272.136 246.568C285.192 246.568 297.024 248.744 307.36 253.232C317.696 257.448 325.856 263.976 331.84 272.68C337.824 281.248 340.816 291.448 340.816 303.28C340.816 306.816 340.408 311.304 339.592 316.744C337.008 331.84 334.016 346.664 330.344 360.944C324.36 384.2 314.16 401.744 299.472 413.304C284.92 424.728 265.336 430.304 240.856 430.304ZM244.528 393.584C254.048 393.584 262.072 390.728 268.736 385.152C275.536 379.576 280.432 371.008 283.288 359.312C287.232 343.264 290.224 329.392 292.264 317.424C292.944 313.888 293.352 310.216 293.352 306.408C293.352 290.904 285.328 283.152 269.144 283.152C259.624 283.152 251.464 286.008 244.664 291.584C238 297.16 233.24 305.728 230.384 317.424C227.256 328.848 224.264 342.72 221.136 359.312C220.456 362.712 220.048 366.248 220.048 370.056C219.912 385.832 228.208 393.584 244.528 393.584ZM348.296 426.088C349.384 427.312 350.744 427.856 352.648 427.856H387.328C389.096 427.856 390.728 427.312 392.224 426.088C393.856 424.864 394.672 423.368 395.08 421.464L406.776 365.568H441.184C463.488 365.568 481.032 360.944 493.816 351.56C506.872 342.176 515.44 327.76 519.656 308.176C520.608 303.552 521.152 299.064 521.152 294.848C521.152 280.024 515.304 268.736 503.744 260.848C492.32 253.096 477.224 249.152 458.32 249.152H390.456C388.688 249.152 387.056 249.696 385.56 250.92C383.928 252.144 382.976 253.64 382.704 255.544L347.48 421.464C347.208 423.232 347.48 424.728 348.296 426.088ZM461.584 324.496C456.28 328.44 450.16 330.344 442.952 330.344H413.712L423.368 284.648H453.968C460.904 284.648 465.936 286.008 468.792 288.728C471.648 291.312 473.144 295.12 473.144 300.016C473.144 302.192 472.872 304.776 472.328 307.632C470.56 314.976 467.024 320.552 461.584 324.496Z" fill="black"/>
</svg>
