<svg width="136" height="136" viewBox="0 0 136 136" fill="none" xmlns="http://www.w3.org/2000/svg">
  <g clip-path="url(#clip0_608_3813)">
    <path
      d="M127.5 34H110.075C107.95 24.225 99.45 17 89.25 17C79.05 17 70.55 24.225 68.425 34H8.5V42.5H68.425C70.55 52.275 79.05 59.5 89.25 59.5C99.45 59.5 107.95 52.275 110.075 42.5H127.5V34ZM89.25 51C82.025 51 76.5 45.475 76.5 38.25C76.5 31.025 82.025 25.5 89.25 25.5C96.475 25.5 102 31.025 102 38.25C102 45.475 96.475 51 89.25 51Z"
      fill="black"/>
    <path
      d="M8.5 102H25.925C28.05 111.775 36.55 119 46.75 119C56.95 119 65.45 111.775 67.575 102H127.5V93.5H67.575C65.45 83.725 56.95 76.5 46.75 76.5C36.55 76.5 28.05 83.725 25.925 93.5H8.5V102ZM46.75 85C53.975 85 59.5 90.525 59.5 97.75C59.5 104.975 53.975 110.5 46.75 110.5C39.525 110.5 34 104.975 34 97.75C34 90.525 39.525 85 46.75 85Z"
      fill="black"/>
  </g>
  <defs>
    <clipPath id="clip0_608_3813">
      <rect width="136" height="136" fill="white"/>
    </clipPath>
  </defs>
</svg>
