<svg width="872" height="872" viewBox="0 0 872 872" fill="none" xmlns="http://www.w3.org/2000/svg">
<g clip-path="url(#clip0_1293_395)">
<path d="M500.529 502.273L458.324 618.075C457.277 621.214 457.277 624.702 458.324 628.19L530.874 827.355L614.935 778.872L514.132 502.273C511.69 495.995 502.97 495.995 500.529 502.273Z" fill="black"/>
<path d="M585.288 307.642C582.847 301.364 574.127 301.364 571.685 307.642L529.48 423.444C528.434 426.583 528.434 430.071 529.48 433.559L648.421 759.687L732.482 711.204L585.288 307.991V307.642Z" fill="black"/>
<path d="M436 54.064C438.092 54.064 440.185 54.7616 441.929 55.808L762.128 240.672C765.964 242.765 768.057 246.95 768.057 251.136V620.864C768.057 625.05 765.616 629.235 762.128 631.328L441.929 816.192C440.185 817.238 438.092 817.936 436 817.936C433.907 817.936 431.814 817.238 430.07 816.192L109.872 631.328C106.035 629.235 103.942 625.05 103.942 620.864V250.787C103.942 246.602 106.384 242.416 109.872 240.323L430.07 55.4592C431.814 54.4128 433.907 53.7152 436 53.7152V54.064ZM436 0C424.489 0 413.328 2.7904 402.864 8.72L82.6653 193.584C62.0861 205.443 49.5293 227.069 49.5293 250.787V620.515C49.5293 644.234 62.0861 665.859 82.6653 677.718L402.864 862.582C412.979 868.512 424.489 871.302 436 871.302C447.51 871.302 458.672 868.512 469.136 862.582L789.334 677.718C809.913 665.859 822.47 644.234 822.47 620.515V250.787C822.47 227.069 809.913 205.443 789.334 193.584L468.787 8.72C458.672 2.7904 447.161 0 435.651 0H436Z" fill="black"/>
<path d="M223.93 760.035L253.578 679.113L312.874 728.294L257.414 779.219L223.93 760.035Z" fill="#213147"/>
<path d="M408.794 224.628H327.524C321.594 224.628 316.013 228.465 313.92 234.046L139.869 711.204L223.93 759.687L415.77 234.046C417.514 229.162 414.026 224.279 409.143 224.279L408.794 224.628Z" fill="black"/>
<path d="M551.104 224.628H469.833C463.904 224.628 458.323 228.465 456.23 234.046L257.414 778.871L341.475 827.354L557.731 234.046C559.475 229.162 555.987 224.279 551.104 224.279V224.628Z" fill="black"/>
</g>
<defs>
<clipPath id="clip0_1293_395">
<rect width="872" height="872" fill="white"/>
</clipPath>
</defs>
</svg>
