<svg width="898" height="899" viewBox="0 0 898 899" fill="none" xmlns="http://www.w3.org/2000/svg">
<g clip-path="url(#clip0_1292_382)">
<path fill-rule="evenodd" clip-rule="evenodd" d="M897.701 449.5C897.701 697.424 696.813 898.402 449 898.402C201.189 898.402 0.298828 697.424 0.298828 449.5C0.298828 201.578 201.189 0.597656 449 0.597656C696.813 0.597656 897.701 201.578 897.701 449.5ZM321.851 628.14H234.771C216.472 628.14 207.434 628.14 201.923 624.614C195.97 620.752 192.333 614.356 191.892 607.297C191.561 600.794 196.081 592.851 205.119 576.971L420.131 197.813C429.281 181.712 433.91 173.662 439.752 170.684C446.035 167.486 453.531 167.486 459.814 170.684C465.656 173.662 470.286 181.712 479.434 197.813L523.862 275.401C533.743 292.674 538.754 301.433 540.942 310.627C543.367 320.662 543.367 331.249 540.942 341.284C538.737 350.547 533.777 359.37 523.746 376.904L410.806 576.64L410.513 577.152C400.567 594.567 395.526 603.394 388.54 610.053C380.934 617.333 371.785 622.623 361.754 625.606C352.605 628.14 342.354 628.14 321.851 628.14ZM541.758 628.14H666.534C684.942 628.14 694.203 628.14 699.717 624.506C705.668 620.645 709.414 614.135 709.749 607.082C710.065 600.788 705.644 593.155 696.981 578.197C696.682 577.688 696.383 577.17 696.079 576.643L633.577 469.674L632.866 468.469C624.083 453.611 619.65 446.107 613.956 443.207C607.677 440.008 600.286 440.008 594.006 443.207C588.274 446.184 583.645 454.014 574.495 469.784L512.216 576.753L512.003 577.121C502.886 592.866 498.33 600.734 498.658 607.19C499.099 614.249 502.737 620.752 508.689 624.614C514.09 628.14 523.349 628.14 541.758 628.14Z" fill="black"/>
</g>
<defs>
<clipPath id="clip0_1292_382">
<rect width="898" height="899" fill="white"/>
</clipPath>
</defs>
</svg>
