<svg version="1.0" xmlns="http://www.w3.org/2000/svg"
     width="450.000000pt" height="450.000000pt" viewBox="0 0 450.000000 450.000000"
     preserveAspectRatio="xMidYMid meet">

  <g transform="translate(0.000000,450.000000) scale(0.100000,-0.100000)"
     fill="#000000" stroke="none">
    <path d="M2005 4249 c-329 -42 -668 -169 -938 -353 -71 -47 -125 -81 -121 -74
5 7 -15 -7 -44 -30 -62 -53 -242 -241 -242 -255 0 -5 8 -3 18 4 15 13 16 12 3
-3 -7 -10 -17 -16 -21 -13 -19 12 -170 -215 -246 -370 -52 -108 -125 -294
-123 -318 0 -7 5 2 11 18 31 90 96 242 139 327 55 106 177 295 205 318 10 8
-1 -10 -23 -40 -197 -265 -340 -620 -387 -968 -17 -117 -20 -377 -7 -469 4
-29 4 -50 -1 -47 -4 3 -8 0 -8 -5 0 -6 5 -11 11 -11 8 0 10 -13 6 -37 -5 -28
-4 -34 4 -23 8 11 9 5 5 -23 -3 -25 -1 -35 6 -31 7 4 8 -4 3 -26 -5 -23 -4
-31 4 -25 8 5 10 -1 5 -21 -5 -18 -3 -25 4 -20 6 3 8 -1 5 -12 -6 -25 66 -239
121 -356 159 -341 410 -632 726 -844 94 -63 314 -177 345 -179 11 -1 63 -16
115 -33 246 -81 477 -115 725 -106 313 11 568 71 835 198 58 27 113 51 124 53
56 12 264 165 399 294 188 180 297 330 412 566 101 206 160 396 197 640 19
125 16 449 -6 580 -35 220 -89 400 -170 571 -108 225 -212 378 -371 543 -88
91 -178 171 -160 141 5 -8 -9 -1 -30 16 -267 210 -650 369 -1013 418 -122 17
-398 20 -517 5z m488 -184 c638 -85 1189 -504 1441 -1098 92 -216 134 -408
142 -652 12 -338 -52 -617 -212 -925 -141 -271 -379 -526 -644 -691 -664 -412
-1512 -361 -2121 129 -105 85 -260 250 -342 363 -37 52 -99 157 -137 233 -300
596 -260 1284 108 1843 288 437 769 734 1302 802 106 14 347 12 463 -4z m532
-3655 c-3 -5 -12 -10 -18 -10 -7 0 -6 4 3 10 19 12 23 12 15 0z m-1505 -10 c8
-5 11 -10 5 -10 -5 0 -17 5 -25 10 -8 5 -10 10 -5 10 6 0 17 -5 25 -10z m50
-20 c8 -5 11 -10 5 -10 -5 0 -17 5 -25 10 -8 5 -10 10 -5 10 6 0 17 -5 25 -10z
m1325 -20 c-27 -12 -43 -12 -25 0 8 5 22 9 30 9 10 0 8 -3 -5 -9z m-130 -40
c-11 -5 -27 -9 -35 -9 -9 0 -8 4 5 9 11 5 27 9 35 9 9 0 8 -4 -5 -9z m-982 -7
c-7 -2 -19 -2 -25 0 -7 3 -2 5 12 5 14 0 19 -2 13 -5z m44 -9 c-3 -3 -12 -4
-19 -1 -8 3 -5 6 6 6 11 1 17 -2 13 -5z m46 -11 c-7 -2 -19 -2 -25 0 -7 3 -2
5 12 5 14 0 19 -2 13 -5z m780 0 c-7 -2 -19 -2 -25 0 -7 3 -2 5 12 5 14 0 19
-2 13 -5z m-730 -10 c-7 -2 -19 -2 -25 0 -7 3 -2 5 12 5 14 0 19 -2 13 -5z
m680 0 c-7 -2 -21 -2 -30 0 -10 3 -4 5 12 5 17 0 24 -2 18 -5z m-605 -10 c-10
-2 -28 -2 -40 0 -13 2 -5 4 17 4 22 1 32 -1 23 -4z m540 0 c-10 -2 -26 -2 -35
0 -10 3 -2 5 17 5 19 0 27 -2 18 -5z m-159 -19 c8 -7 -252 -2 -309 5 -30 4 26
5 125 3 99 -3 182 -6 184 -8z m84 9 c-13 -2 -33 -2 -45 0 -13 2 -3 4 22 4 25
0 35 -2 23 -4z"/>
    <path d="M2263 3563 l-193 -3 0 -130 0 -130 -260 0 -260 0 0 -130 0 -130 -135
0 -135 0 0 -790 0 -789 133 -3 132 -3 0 -115 c0 -63 1 -123 3 -132 2 -17 22
-18 262 -18 l260 0 0 -130 0 -130 265 0 265 0 0 130 0 130 261 2 260 3 2 130
2 130 133 3 132 3 0 259 0 260 -265 0 -265 0 0 -130 0 -130 -130 0 -130 0 0
-129 0 -129 -172 -7 c-95 -3 -213 -5 -263 -3 l-90 3 -3 133 -3 132 -129 0
-130 0 -1 515 c-1 283 -2 521 -3 528 -1 9 33 13 131 15 l132 3 3 132 3 132 90
3 c50 2 168 0 263 -3 l172 -7 0 -129 0 -128 133 -3 132 -3 0 -128 0 -127 263
0 262 0 0 260 0 260 -135 0 -135 0 0 130 0 130 -259 0 -259 0 -7 84 c-4 46 -6
105 -4 130 l4 46 -35 0 c-19 0 -51 2 -70 3 -19 2 -122 2 -227 0z"/>
    <path d="M261 2734 c0 -11 3 -14 6 -6 3 7 2 16 -1 19 -3 4 -6 -2 -5 -13z"/>
    <path d="M251 2694 c0 -11 3 -14 6 -6 3 7 2 16 -1 19 -3 4 -6 -2 -5 -13z"/>
    <path d="M241 2644 c0 -11 3 -14 6 -6 3 7 2 16 -1 19 -3 4 -6 -2 -5 -13z"/>
    <path d="M211 2454 c0 -11 3 -14 6 -6 3 7 2 16 -1 19 -3 4 -6 -2 -5 -13z"/>
  </g>
</svg>
