<?xml version="1.0"?>
<svg width="400" height="400" xmlns="http://www.w3.org/2000/svg" xmlns:svg="http://www.w3.org/2000/svg">
  <g class="layer">
    <title>Layer 1</title>
    <path clip-rule="evenodd" d="m153.7,335.12c-18.65,0 -35.17,-11.99 -40.81,-29.64l-29.01,-90.77l-17.84,0c-18.65,0 -35.17,-11.99 -40.81,-29.64l-17.24,-53.94l64.65,0l-34.11,-51l323.11,0l-34.11,51l64.65,0l-17.24,53.94c-5.64,17.66 -22.16,29.64 -40.81,29.64l-17.84,0l-29.01,90.77c-5.64,17.66 -22.16,29.64 -40.81,29.64l-92.78,0l0.01,0zm-21.9,-145.21c0,13.69 10.29,24.79 22.99,24.79c12.72,0 23.01,-11.1 23.01,-24.79s-10.29,-24.79 -23.01,-24.79c-12.7,0 -22.99,11.1 -22.99,24.79zm136.61,0c0,13.69 -10.3,24.79 -23.01,24.79c-12.7,0 -23.01,-11.1 -23.01,-24.79s10.3,-24.79 23.01,-24.79c12.7,0 23.01,11.1 23.01,24.79z" fill="#23191a" fill-rule="evenodd" id="svg_2"/>
  </g>
</svg>
