<?xml version="1.0"?>
<svg width="300" height="210" xmlns="http://www.w3.org/2000/svg" xmlns:svg="http://www.w3.org/2000/svg">
  <g class="layer">
    <title>Layer 1</title>
    <path clip-rule="evenodd" d="m116.36,199.12c-13.36,0 -25.19,-8.65 -29.23,-21.39l-20.78,-65.5l-12.78,0c-13.36,0 -25.19,-8.65 -29.23,-21.39l-12.35,-38.92l46.31,0l-24.43,-36.8l231.44,0l-24.43,36.8l46.31,0l-12.35,38.92c-4.04,12.74 -15.87,21.39 -29.23,21.39l-12.78,0l-20.78,65.5c-4.04,12.74 -15.87,21.39 -29.23,21.39l-66.46,0zm-15.69,-104.78c0,9.88 7.37,17.89 16.47,17.89c9.11,0 16.48,-8.01 16.48,-17.89s-7.37,-17.89 -16.48,-17.89c-9.1,0 -16.47,8.01 -16.47,17.89zm97.85,0c0,9.88 -7.38,17.89 -16.48,17.89c-9.1,0 -16.48,-8.01 -16.48,-17.89s7.38,-17.89 16.48,-17.89c9.1,0 16.48,8.01 16.48,17.89z" fill="#23191a" fill-rule="evenodd" id="svg_2"/>
  </g>
</svg>
