<svg xmlns="http://www.w3.org/2000/svg" viewBox="0 0 1500 1500.01"><g id="Capa_2" data-name="Capa 2"><g id="Capa_1-2" data-name="Capa 1"><path d="M750,0C335.78,0,0,335.79,0,750s335.78,750,750,750,750-335.79,750-750S1164.22,0,750,0Zm494.49,737.77c-14.35,12.49-41.38,32.28-41.38,32.28s1.4,9.11,5.24,16.32,13.13,18,10.29,27.83-22.79,17.51-17.1,28.37,19.79,14.2,15.73,24-23.81,26.65-21.84,33.95,18,74.53-18.94,86.26c-27.79,8.81-104.19,13.82-140.07,15.72a44.92,44.92,0,0,0-36.91,23.19c-5.61,10.18-11,24.23-13.78,43-7,47.64-54,157-54,157s-2.24,5.1-4.51,10.49A24.84,24.84,0,0,1,911,1250.52a550.24,550.24,0,0,1-331.19-12.27,25,25,0,0,1-14.72-33.46c9.58-22.09,17.64-44.17,23.61-61.87,2.59-7.69,5.51-15.24,8.68-22.71,9.21-21.73,28.08-65.7,40.73-92.44,135,29.89,217.08-45.43,238.4-68.38a5.74,5.74,0,0,0-2.5-9.32c-68.68-23.07-157.17-5.52-217.74,40.3,19.28-38.72,41-79.2,64.7-119.15C861.23,890.37,935.68,806.79,954.4,782a5.68,5.68,0,0,0-3.3-8.91c-65.11-15.8-143.46,4.77-199.38,48.47,16.19-25,33.12-49.37,50.69-72.52C948.63,680.79,969.91,547.87,973,513.35a5.61,5.61,0,0,0-7.47-5.8c-33.13,11.61-159.19,66.38-184.43,233.3-9.32,12.48-23.58,32.36-41.15,59.22,24.23-101-14.9-171.07-29.3-192.45a5.65,5.65,0,0,0-9.53.26c-16.59,27.67-69.23,132.61,1.41,252.33-19.19,32.39-40.2,70.33-61.8,113.47C648,856.47,585.57,791.55,565,773.54a5.61,5.61,0,0,0-9.07,2.54c-9.39,30.12-35.13,142.58,62.76,243-12.21,26.06-24.46,53.75-36.54,82.94-.89-.32-1.65-.58-2.15-.73a215.88,215.88,0,0,1-49-21.72,198.58,198.58,0,0,0-40-18.34c-54.38-17.84-46.4-44.08-74.81-96.59-1.85-3.42-24.33-26.88-29.16-31.14-1.17-1-15.52-9.38-22.81-24.75-6.65-14.09-10.44-27.18-11.85-39.94-1.82-17.09-8.88-28.33-25.55-34.1C246.74,807,282.58,703.14,285.36,689.21c2.39-11.77-7.94-37.44-11.74-51.6-.34-1.7-.79-3.8-1.33-6.34-5.81-27.86,7.18-51.45,16.78-61.13s42.84-25.18,49.86-34.33c6.87-8.92,12.34-19.13,19.4-27.86,9.34-11.62,37.86-34.37,76.4-55,23.31-12.45,27.41-45.07,36.3-55.05,15.18-17.13,38.19-17.13,55.28-32.55,8.62-7.78,21.11-11.65,29.12-19.86,39.68-40.66,92.84-57.14,145.42-66.93,35.42-6.61,74.87,3.57,111.9,9.87a134.68,134.68,0,0,1,15.64,3.72c83.11,2.77,183.17,20.13,219.31,55.39a153,153,0,0,1,38.91,62.55,244.46,244.46,0,0,0,24.49,52.62l22.22,36.18A102.4,102.4,0,0,1,1146,575.46c-3.46,14.92-5.29,30.56-.84,39.25,6.95,13.6,28.25,35.7,41,48.34a119.9,119.9,0,0,0,20.43,16.17c17.08,10.82,49.51,31.56,49.55,33.34C1256.18,715,1258.84,725.28,1244.49,737.77Z"/></g></g></svg>