<svg width="767" height="670" viewBox="0 0 767 670" fill="none" xmlns="http://www.w3.org/2000/svg">
<g clip-path="url(#clip0_1292_375)">
<path d="M579.245 204C565.263 196 547.286 196 531.307 204L419.453 270L343.552 312L233.695 378C219.714 386 201.737 386 185.758 378L99.8698 326C85.888 318 75.901 302 75.901 284V184C75.901 168 83.8906 152 99.8698 142L185.758 92C199.74 84 217.716 84 233.695 92L319.583 144C333.565 152 343.552 168 343.552 186V252L419.453 208V140C419.453 124 411.464 108 395.484 98L235.693 4C221.711 -4 203.734 -4 187.755 4L23.9688 100C7.98958 108 0 124 0 140V328C0 344 7.98958 360 23.9688 370L185.758 464C199.74 472 217.716 472 233.695 464L343.552 400L419.453 356L529.31 292C543.292 284 561.268 284 577.247 292L663.135 342C677.117 350 687.104 366 687.104 384V484C687.104 500 679.115 516 663.135 526L579.245 576C565.263 584 547.286 584 531.307 576L445.419 526C431.437 518 421.451 502 421.451 484V420L345.549 464V530C345.549 546 353.539 562 369.518 572L531.307 666C545.289 674 563.266 674 579.245 666L741.034 572C755.016 564 765.003 548 765.003 530V340C765.003 324 757.013 308 741.034 298L579.245 204Z" fill="black"/>
</g>
<defs>
<clipPath id="clip0_1292_375">
<rect width="767" height="670" fill="white"/>
</clipPath>
</defs>
</svg>
