<svg xmlns="http://www.w3.org/2000/svg" xmlns:xlink="http://www.w3.org/1999/xlink" version="1.1" width="400.06"
     height="400" viewBox="0 0 400.06 400" xml:space="preserve">
  <defs>
</defs>
  <g transform="matrix(0.8219471911 0 0 0.8219471911 200.03 200)" id="1KgS37mmi-a5fdMo6aWhV">
<g style="">
		<g transform="matrix(1 0 0 1 51.45 113.95)" id="31C7uV40UlwV7M88U4VTx">
<path
  style="stroke: none; stroke-width: 1; stroke-dasharray: none; stroke-linecap: butt; stroke-dashoffset: 0; stroke-linejoin: miter; stroke-miterlimit: 4; fill: rgb(0,0,0); fill-rule: nonzero; opacity: 1;"
  transform=" translate(-382.25, -444.7)"
  d="M 532 330.7 L 482.6 330.7 C 467.8 330.7 455.90000000000003 342.7 455.90000000000003 357.4 L 455.90000000000003 429.09999999999997 C 455.90000000000003 443.9 443.90000000000003 455.79999999999995 429.20000000000005 455.79999999999995 L 232.5 455.79999999999995 C 217.7 455.79999999999995 205.8 467.79999999999995 205.8 482.49999999999994 L 205.8 532 C 205.8 546.8 217.8 558.7 232.5 558.7 L 440.5 558.7 C 455.3 558.7 467 546.7 467 532 L 467 492.4 C 467 477.59999999999997 479 467.2 493.7 467.2 L 532 467.2 C 546.8 467.2 558.7 455.2 558.7 440.5 L 558.7 357.2 C 558.7 342.3 546.7 330.7 532 330.7 L 532 330.7 z"
  stroke-linecap="round"/>
</g>
  <g transform="matrix(1 0 0 1 -51.45 -113.9)" id="8kRzDbyK16Fse6f81Wb5H">
<path
  style="stroke: none; stroke-width: 1; stroke-dasharray: none; stroke-linecap: butt; stroke-dashoffset: 0; stroke-linejoin: miter; stroke-miterlimit: 4; fill: rgb(0,0,0); fill-rule: nonzero; opacity: 1;"
  transform=" translate(-279.35, -216.85)"
  d="M 205.8 232.5 C 205.8 217.7 217.8 205.8 232.5 205.8 L 429 205.8 C 443.8 205.8 455.7 193.8 455.7 179.10000000000002 L 455.7 129.70000000000002 C 455.7 114.90000000000002 443.7 103.00000000000001 429 103.00000000000001 L 221.1 103.00000000000001 C 206.29999999999998 103.00000000000001 194.4 115.00000000000001 194.4 129.70000000000002 L 194.4 167.8 C 194.4 182.60000000000002 182.4 194.5 167.70000000000002 194.5 L 129.70000000000002 194.5 C 114.90000000000002 194.5 103.00000000000001 206.5 103.00000000000001 221.2 L 103.00000000000001 304.6 C 103.00000000000001 319.40000000000003 115.00000000000001 330.70000000000005 129.8 330.70000000000005 L 179.20000000000002 330.70000000000005 C 194.00000000000003 330.70000000000005 205.9 318.70000000000005 205.9 304.00000000000006 L 205.8 232.5 L 205.8 232.5 z"
  stroke-linecap="round"/>
</g>
  <g transform="matrix(1 0 0 1 0.45 -0.2)" id="FQvkluP7PxwXc4y6cJL2T">
<path
  style="stroke: none; stroke-width: 1; stroke-dasharray: none; stroke-linecap: butt; stroke-dashoffset: 0; stroke-linejoin: miter; stroke-miterlimit: 4; fill: rgb(0,0,0); fill-rule: nonzero; opacity: 1;"
  transform=" translate(-331.25, -330.55)"
  d="M 307.5 278.8 L 355 278.8 C 370.5 278.8 383 291.40000000000003 383 306.8 L 383 354.3 C 383 369.8 370.4 382.3 355 382.3 L 307.5 382.3 C 292 382.3 279.5 369.7 279.5 354.3 L 279.5 306.8 C 279.5 291.3 292.1 278.8 307.5 278.8 z"
  stroke-linecap="round"/>
</g>
</g>
</g>
</svg>
